<svg width="14" height="14" viewBox="0 0 14 14" fill="none" xmlns="http://www.w3.org/2000/svg">
<circle cx="7" cy="7" r="7" fill="#FC5C7D"/>
<path d="M8.2 7.15625C7.81563 7.15625 7.6308 7.375 7 7.375C6.3692 7.375 6.18571 7.15625 5.8 7.15625C4.80625 7.15625 4 7.9793 4 8.99375V9.34375C4 9.70605 4.28795 10 4.64286 10H9.35714C9.71205 10 10 9.70605 10 9.34375V8.99375C10 7.9793 9.19375 7.15625 8.2 7.15625ZM9.35714 9.34375H4.64286V8.99375C4.64286 8.34297 5.1625 7.8125 5.8 7.8125C5.99554 7.8125 6.31295 8.03125 7 8.03125C7.69241 8.03125 8.00313 7.8125 8.2 7.8125C8.8375 7.8125 9.35714 8.34297 9.35714 8.99375V9.34375ZM7 6.9375C8.06473 6.9375 8.92857 6.05566 8.92857 4.96875C8.92857 3.88184 8.06473 3 7 3C5.93527 3 5.07143 3.88184 5.07143 4.96875C5.07143 6.05566 5.93527 6.9375 7 6.9375ZM7 3.65625C7.70848 3.65625 8.28571 4.24551 8.28571 4.96875C8.28571 5.69199 7.70848 6.28125 7 6.28125C6.29152 6.28125 5.71429 5.69199 5.71429 4.96875C5.71429 4.24551 6.29152 3.65625 7 3.65625Z" fill="white"/>
</svg>
